<?xml version="1.0" encoding="UTF-8"?>
<!DOCTYPE svg PUBLIC "-//W3C//DTD SVG 1.1//EN" "http://www.w3.org/Graphics/SVG/1.1/DTD/svg11.dtd">
<svg xmlns="http://www.w3.org/2000/svg" version="1.1" width="295px" height="295px" style="shape-rendering:geometricPrecision; text-rendering:geometricPrecision; image-rendering:optimizeQuality; fill-rule:evenodd; clip-rule:evenodd" xmlns:xlink="http://www.w3.org/1999/xlink">
<g><path style="opacity:0.439" fill="#c4ecfe" d="M 145.5,6.5 C 146.274,5.85287 147.274,5.51954 148.5,5.5C 150.03,5.63985 151.03,6.30652 151.5,7.5C 149.565,6.85048 147.565,6.51715 145.5,6.5 Z"/></g>
<g><path style="opacity:1" fill="#8cadd5" d="M 143.5,7.5 C 143.027,8.90632 142.027,9.57298 140.5,9.5C 140.877,7.17588 141.877,6.50921 143.5,7.5 Z"/></g>
<g><path style="opacity:1" fill="#c0def8" d="M 139.5,9.5 C 136.434,11.8899 133.1,13.8899 129.5,15.5C 131.577,11.4681 134.911,9.46809 139.5,9.5 Z"/></g>
<g><path style="opacity:1" fill="#b5e4fa" d="M 151.5,7.5 C 156.744,8.94249 161.077,11.6092 164.5,15.5C 159.568,13.5201 155.235,10.8534 151.5,7.5 Z"/></g>
<g><path style="opacity:0.376" fill="#cbe1f5" d="M 127.5,13.5 C 128.833,14.1667 128.833,14.1667 127.5,13.5 Z"/></g>
<g><path style="opacity:1" fill="#bbdefa" d="M 129.5,15.5 C 128.486,16.6737 127.153,17.3404 125.5,17.5C 126.287,15.8958 127.62,15.2291 129.5,15.5 Z"/></g>
<g><path style="opacity:0.251" fill="#c2e1fd" d="M 125.5,17.5 C 124.564,18.9744 123.23,19.9744 121.5,20.5C 121.694,18.0882 123.027,17.0882 125.5,17.5 Z"/></g>
<g><path style="opacity:0.063" fill="#c7e7fb" d="M 120.5,20.5 C 119.564,21.9744 118.23,22.9744 116.5,23.5C 116.389,22.8826 116.056,22.3826 115.5,22C 117.081,21.2935 118.581,20.4601 120,19.5C 120.399,19.7284 120.565,20.0618 120.5,20.5 Z"/></g>
<g><path style="opacity:0.188" fill="#b3e3f7" d="M 164.5,15.5 C 168.946,16.3063 172.779,18.3063 176,21.5C 176.333,21.1667 176.667,20.8333 177,20.5C 180.066,22.7513 182.9,25.0846 185.5,27.5C 181.273,24.7251 176.606,23.0584 171.5,22.5C 171.649,21.448 171.483,20.448 171,19.5C 168.686,18.2668 166.519,16.9334 164.5,15.5 Z"/></g>
<g><path style="opacity:0.941" fill="#c4e6fd" d="M 115.5,23.5 C 113.882,25.316 111.882,26.6493 109.5,27.5C 110.733,25.2036 112.733,23.8702 115.5,23.5 Z"/></g>
<g><path style="opacity:1" fill="#c7e5f9" d="M 109.5,27.5 C 108.035,28.7368 106.368,29.7368 104.5,30.5C 103.402,29.603 103.402,28.7697 104.5,28C 106.299,26.9637 107.966,26.7971 109.5,27.5 Z"/></g>
<g><path style="opacity:1" fill="#a5dbf6" d="M 192.5,31.5 C 190.436,31.313 188.436,30.813 186.5,30C 185.748,29.3292 185.414,28.4959 185.5,27.5C 186.117,27.3893 186.617,27.056 187,26.5C 189.067,28.7782 190.9,30.4449 192.5,31.5 Z"/></g>
<g><path style="opacity:1" fill="#5fc5fa" d="M 143.5,7.5 C 143.842,6.66175 144.508,6.32842 145.5,6.5C 147.565,6.51715 149.565,6.85048 151.5,7.5C 155.235,10.8534 159.568,13.5201 164.5,15.5C 166.519,16.9334 168.686,18.2668 171,19.5C 171.483,20.448 171.649,21.448 171.5,22.5C 176.606,23.0584 181.273,24.7251 185.5,27.5C 185.414,28.4959 185.748,29.3292 186.5,30C 188.436,30.813 190.436,31.313 192.5,31.5C 194.205,33.1921 196.205,34.5254 198.5,35.5C 198.5,36.5 198.5,37.5 198.5,38.5C 208.25,43.7084 218.25,48.375 228.5,52.5C 231.008,54.9236 234.008,56.5903 237.5,57.5C 239.332,58.2485 240.999,59.2485 242.5,60.5C 243.262,62.2624 244.596,63.2624 246.5,63.5C 252.594,67.0756 258.594,70.909 264.5,75C 265.337,76.0113 265.67,77.1779 265.5,78.5C 265.5,79.1667 265.5,79.8333 265.5,80.5C 265.167,80.5 264.833,80.5 264.5,80.5C 262.345,80.372 260.345,80.872 258.5,82C 250.561,88.274 241.895,93.274 232.5,97C 228.694,100.073 224.694,102.906 220.5,105.5C 220.827,100.456 220.494,95.456 219.5,90.5C 216.862,86.5197 213.195,84.8531 208.5,85.5C 207.833,85.1667 207.167,84.8333 206.5,84.5C 204.118,83.6493 202.118,82.316 200.5,80.5C 199.945,78.2712 198.611,76.6046 196.5,75.5C 187.262,71.7564 178.929,66.5897 171.5,60C 165.266,58.5086 159.599,55.8419 154.5,52C 152.187,51.338 149.854,50.838 147.5,50.5C 147.5,42.8333 147.5,35.1667 147.5,27.5C 147.5,20.8333 147.5,14.1667 147.5,7.5C 146.167,7.5 144.833,7.5 143.5,7.5 Z"/></g>
<g><path style="opacity:0.502" fill="#c2ebfd" d="M 192.5,31.5 C 196.86,32.0044 200.193,34.0044 202.5,37.5C 201.167,36.8333 199.833,36.1667 198.5,35.5C 196.205,34.5254 194.205,33.1921 192.5,31.5 Z"/></g>
<g><path style="opacity:1" fill="#aacbf1" d="M 98.5,33.5 C 98.1667,34.5 97.5,35.1667 96.5,35.5C 96.1667,35.5 95.8333,35.5 95.5,35.5C 95.9731,34.0937 96.9731,33.427 98.5,33.5 Z"/></g>
<g><path style="opacity:1" fill="#567db2" d="M 95.5,35.5 C 95.8333,35.5 96.1667,35.5 96.5,35.5C 95.9688,37.6237 94.6355,39.1237 92.5,40C 89.469,42.0148 86.1357,43.1815 82.5,43.5C 82.9731,42.0937 83.9731,41.427 85.5,41.5C 87.0269,41.573 88.0269,40.9063 88.5,39.5C 88.3932,37.6214 88.8932,37.2881 90,38.5C 91.7804,37.3606 93.6137,36.3606 95.5,35.5 Z"/></g>
<g><path style="opacity:1" fill="#a2c4e8" d="M 88.5,39.5 C 88.0269,40.9063 87.0269,41.573 85.5,41.5C 85.9731,40.0937 86.9731,39.427 88.5,39.5 Z"/></g>
<g><path style="opacity:1" fill="#1d59ae" d="M 143.5,7.5 C 144.833,7.5 146.167,7.5 147.5,7.5C 147.5,14.1667 147.5,20.8333 147.5,27.5C 146.834,30.3583 146.167,33.3583 145.5,36.5C 144.92,38.6367 143.92,40.47 142.5,42C 143.767,43.7959 143.767,45.6293 142.5,47.5C 143.167,48.1667 143.833,48.8333 144.5,49.5C 143.476,50.8518 142.476,52.1851 141.5,53.5C 135.281,55.4157 129.281,57.749 123.5,60.5C 123.5,61.5 123.5,62.5 123.5,63.5C 120.115,64.3618 117.115,66.0284 114.5,68.5C 110.547,66.8531 107.047,67.5198 104,70.5C 103.383,71.4491 103.549,72.2825 104.5,73C 101.439,75.9245 97.7725,77.4245 93.5,77.5C 93.5,78.8333 93.5,80.1667 93.5,81.5C 92.1266,81.3433 90.7932,81.51 89.5,82C 86.2421,84.5722 82.5754,86.4055 78.5,87.5C 77.5713,88.6888 77.238,90.0222 77.5,91.5C 76.8333,91.8333 76.1667,92.1667 75.5,92.5C 74.5206,95.6248 74.1872,98.9581 74.5,102.5C 60.834,94.3336 47.1673,86.1669 33.5,78C 33.8333,77.6667 34.1667,77.3333 34.5,77C 33.2312,77.1085 32.2312,76.9418 31.5,76.5C 36.9078,72.9436 42.2411,69.1102 47.5,65C 51.6878,62.6712 56.0212,60.5046 60.5,58.5C 60.8627,57.8165 61.1961,57.1499 61.5,56.5C 64.0486,55.4909 66.7152,54.6575 69.5,54C 70.7433,52.8455 71.7433,51.5122 72.5,50C 76.7699,49.2225 80.1032,47.0559 82.5,43.5C 86.1357,43.1815 89.469,42.0148 92.5,40C 94.6355,39.1237 95.9688,37.6237 96.5,35.5C 97.5,35.1667 98.1667,34.5 98.5,33.5C 100.517,32.4706 102.517,31.4706 104.5,30.5C 106.368,29.7368 108.035,28.7368 109.5,27.5C 111.882,26.6493 113.882,25.316 115.5,23.5C 115.833,23.5 116.167,23.5 116.5,23.5C 118.23,22.9744 119.564,21.9744 120.5,20.5C 120.833,20.5 121.167,20.5 121.5,20.5C 123.23,19.9744 124.564,18.9744 125.5,17.5C 127.153,17.3404 128.486,16.6737 129.5,15.5C 133.1,13.8899 136.434,11.8899 139.5,9.5C 139.833,9.5 140.167,9.5 140.5,9.5C 142.027,9.57298 143.027,8.90632 143.5,7.5 Z"/></g>
<g><path style="opacity:1" fill="#2260a9" d="M 147.5,27.5 C 147.5,35.1667 147.5,42.8333 147.5,50.5C 146.833,50.5 146.5,50.8333 146.5,51.5C 145.18,52.9418 143.514,53.6085 141.5,53.5C 142.476,52.1851 143.476,50.8518 144.5,49.5C 143.833,48.8333 143.167,48.1667 142.5,47.5C 143.767,45.6293 143.767,43.7959 142.5,42C 143.92,40.47 144.92,38.6367 145.5,36.5C 146.167,33.3583 146.834,30.3583 147.5,27.5 Z"/></g>
<g><path style="opacity:0.063" fill="#d0e4f4" d="M 78.5,42.5 C 79.8333,43.1667 79.8333,43.1667 78.5,42.5 Z"/></g>
<g><path style="opacity:0.565" fill="#c7e8fa" d="M 78.5,43.5 C 78.5,44.1667 78.8333,44.5 79.5,44.5C 79.0269,45.9063 78.0269,46.573 76.5,46.5C 76.427,44.9731 77.0937,43.9731 78.5,43.5 Z"/></g>
<g><path style="opacity:1" fill="#9bd3f1" d="M 198.5,35.5 C 199.833,36.1667 201.167,36.8333 202.5,37.5C 209.644,39.9894 216.144,43.6561 222,48.5C 224.961,48.0793 227.127,49.4127 228.5,52.5C 218.25,48.375 208.25,43.7084 198.5,38.5C 198.5,37.5 198.5,36.5 198.5,35.5 Z"/></g>
<g><path style="opacity:0.439" fill="#cde2fa" d="M 70.5,49.5 C 69.475,49.1034 69.3083,48.4368 70,47.5C 70.4643,48.0944 70.631,48.7611 70.5,49.5 Z"/></g>
<g><path style="opacity:0.188" fill="#cee4f8" d="M 68.5,50.5 C 67.8333,49.1667 67.8333,49.1667 68.5,50.5 Z"/></g>
<g><path style="opacity:0.753" fill="#c2e6fd" d="M 67.5,51.5 C 66.5637,52.9744 65.2303,53.9744 63.5,54.5C 64.0347,52.5544 65.368,51.5544 67.5,51.5 Z"/></g>
<g><path style="opacity:1" fill="#3b66a4" d="M 82.5,43.5 C 80.1032,47.0559 76.7699,49.2225 72.5,50C 71.7433,51.5122 70.7433,52.8455 69.5,54C 66.7152,54.6575 64.0486,55.4909 61.5,56.5C 62.1667,55.8333 62.8333,55.1667 63.5,54.5C 65.2303,53.9744 66.5637,52.9744 67.5,51.5C 68.1667,51.5 68.5,51.1667 68.5,50.5C 69.4916,50.6716 70.1583,50.3382 70.5,49.5C 72.5,48.5 74.5,47.5 76.5,46.5C 78.0269,46.573 79.0269,45.9063 79.5,44.5C 80.391,43.8902 81.391,43.5569 82.5,43.5 Z"/></g>
<g><path style="opacity:0.063" fill="#d0e7f3" d="M 234.5,53.5 C 235.833,54.1667 235.833,54.1667 234.5,53.5 Z"/></g>
<g><path style="opacity:1" fill="#b8d9f3" d="M 63.5,54.5 C 62.8333,55.1667 62.1667,55.8333 61.5,56.5C 60.391,56.5569 59.391,56.8902 58.5,57.5C 59.2066,55.8656 60.3732,54.5323 62,53.5C 62.3826,54.056 62.8826,54.3893 63.5,54.5 Z"/></g>
<g><path style="opacity:1" fill="#c0edfe" d="M 228.5,52.5 C 230.703,52.6036 232.703,53.2702 234.5,54.5C 235.694,55.2719 236.694,56.2719 237.5,57.5C 234.008,56.5903 231.008,54.9236 228.5,52.5 Z"/></g>
<g><path style="opacity:1" fill="#fbfdfc" d="M 146.5,51.5 C 149.673,52.1697 152.673,53.3364 155.5,55C 170.555,63.5239 185.555,72.0239 200.5,80.5C 202.118,82.316 204.118,83.6493 206.5,84.5C 206.414,85.4959 206.748,86.3292 207.5,87C 210.582,88.4086 213.415,90.2419 216,92.5C 216.829,97.8643 216.663,103.198 215.5,108.5C 210.317,110.681 205.65,113.681 201.5,117.5C 200.614,116.675 200.281,115.675 200.5,114.5C 198.473,114.662 196.473,114.495 194.5,114C 192.679,111.756 190.346,110.59 187.5,110.5C 178.833,105.833 170.167,101.167 161.5,96.5C 157.899,94.0228 154.233,91.5228 150.5,89C 148.465,88.4014 146.799,88.9014 145.5,90.5C 140.833,92.8333 136.167,95.1667 131.5,97.5C 128.854,97.8916 126.354,97.8916 124,97.5C 122.47,100.353 120.303,101.02 117.5,99.5C 116.713,100.242 116.047,101.075 115.5,102C 116.517,103.049 116.684,104.216 116,105.5C 112.43,106.119 109.43,107.786 107,110.5C 106.81,130.524 106.31,150.524 105.5,170.5C 107.439,177.132 111.773,180.466 118.5,180.5C 128.306,185.57 137.972,190.903 147.5,196.5C 156.527,191.658 165.194,186.325 173.5,180.5C 181.095,177.035 188.428,173.035 195.5,168.5C 198.553,168.572 201.219,169.572 203.5,171.5C 206.291,173.735 209.291,175.735 212.5,177.5C 214.167,178.833 215.833,180.167 217.5,181.5C 217.663,183.857 217.497,186.19 217,188.5C 216.29,189.973 215.124,190.64 213.5,190.5C 213.714,192.144 213.38,193.644 212.5,195C 207.996,196.736 203.663,198.736 199.5,201C 198.177,201.816 197.511,202.983 197.5,204.5C 197.167,205.167 196.833,205.833 196.5,206.5C 180.814,214.679 165.48,223.512 150.5,233C 147.697,233.755 145.03,233.422 142.5,232C 133.473,226.822 124.473,221.655 115.5,216.5C 112.869,214.847 110.203,213.181 107.5,211.5C 106.833,211.167 106.167,210.833 105.5,210.5C 97.5,205.5 89.5,200.5 81.5,195.5C 81.313,193.436 80.813,191.436 80,189.5C 79.6924,190.308 79.1924,190.975 78.5,191.5C 77.3338,175.51 77.1671,159.51 78,143.5C 78.3108,141.444 78.8108,139.444 79.5,137.5C 78.8154,124.186 78.1487,110.853 77.5,97.5C 77.5288,95.9707 78.1955,94.804 79.5,94C 79.1667,93.6667 78.8333,93.3333 78.5,93C 81.9269,91.2014 85.5936,90.0347 89.5,89.5C 91.6223,86.8159 93.6223,84.1492 95.5,81.5C 110.833,72.1667 126.167,62.8333 141.5,53.5C 143.514,53.6085 145.18,52.9418 146.5,51.5 Z"/></g>
<g><path style="opacity:0.376" fill="#c0e2fb" d="M 50.5,61.5 C 50.0269,62.9063 49.0269,63.573 47.5,63.5C 47.8212,61.9519 48.8212,61.2852 50.5,61.5 Z"/></g>
<g><path style="opacity:1" fill="#3b66a1" d="M 61.5,56.5 C 61.1961,57.1499 60.8627,57.8165 60.5,58.5C 56.0212,60.5046 51.6878,62.6712 47.5,65C 42.2411,69.1102 36.9078,72.9436 31.5,76.5C 31.1667,76.5 30.8333,76.5 30.5,76.5C 30.7329,74.9382 31.3995,73.6049 32.5,72.5C 34.0269,72.573 35.0269,71.9063 35.5,70.5C 36.1667,70.5 36.5,70.1667 36.5,69.5C 36.8333,69.5 37.1667,69.5 37.5,69.5C 39.4341,68.8897 41.1007,67.8897 42.5,66.5C 44.0269,66.573 45.0269,65.9063 45.5,64.5C 46.1667,64.1667 46.8333,63.8333 47.5,63.5C 49.0269,63.573 50.0269,62.9063 50.5,61.5C 52.8485,59.659 55.5152,58.3257 58.5,57.5C 59.391,56.8902 60.391,56.5569 61.5,56.5 Z"/></g>
<g><path style="opacity:0.878" fill="#c1ebfb" d="M 242.5,60.5 C 244.482,60.9954 246.482,61.4954 248.5,62C 247.584,62.2784 246.918,62.7784 246.5,63.5C 244.596,63.2624 243.262,62.2624 242.5,60.5 Z"/></g>
<g><path style="opacity:0.753" fill="#c1ebfe" d="M 246.5,63.5 C 253.579,66.0653 260.079,69.732 266,74.5C 267.724,78.8976 267.891,83.2309 266.5,87.5C 266.81,84.2869 266.477,81.2869 265.5,78.5C 265.67,77.1779 265.337,76.0113 264.5,75C 258.594,70.909 252.594,67.0756 246.5,63.5 Z"/></g>
<g><path style="opacity:1" fill="#b7dafa" d="M 45.5,64.5 C 45.0269,65.9063 44.0269,66.573 42.5,66.5C 42.9731,65.0937 43.9731,64.427 45.5,64.5 Z"/></g>
<g><path style="opacity:0.376" fill="#bfddf8" d="M 42.5,66.5 C 41.1007,67.8897 39.4341,68.8897 37.5,69.5C 38.2066,67.8656 39.3732,66.5323 41,65.5C 41.3826,66.056 41.8826,66.3893 42.5,66.5 Z"/></g>
<g><path style="opacity:1" fill="#2c5f9f" d="M 141.5,53.5 C 126.167,62.8333 110.833,72.1667 95.5,81.5C 94.8333,81.5 94.1667,81.5 93.5,81.5C 93.5,80.1667 93.5,78.8333 93.5,77.5C 97.7725,77.4245 101.439,75.9245 104.5,73C 103.549,72.2825 103.383,71.4491 104,70.5C 107.047,67.5198 110.547,66.8531 114.5,68.5C 117.115,66.0284 120.115,64.3618 123.5,63.5C 123.5,62.5 123.5,61.5 123.5,60.5C 129.281,57.749 135.281,55.4157 141.5,53.5 Z"/></g>
<g><path style="opacity:0.251" fill="#dde1e5" d="M 30.5,68.5 C 31.8333,69.1667 31.8333,69.1667 30.5,68.5 Z"/></g>
<g><path style="opacity:0.125" fill="#cfe4fe" d="M 36.5,69.5 C 35.8333,68.1667 35.8333,68.1667 36.5,69.5 Z"/></g>
<g><path style="opacity:0.314" fill="#bedcf9" d="M 35.5,70.5 C 35.0269,71.9063 34.0269,72.573 32.5,72.5C 32.8212,70.9519 33.8212,70.2852 35.5,70.5 Z"/></g>
<g><path style="opacity:1" fill="#74c3e8" d="M 146.5,51.5 C 146.5,50.8333 146.833,50.5 147.5,50.5C 149.854,50.838 152.187,51.338 154.5,52C 159.599,55.8419 165.266,58.5086 171.5,60C 178.929,66.5897 187.262,71.7564 196.5,75.5C 198.611,76.6046 199.945,78.2712 200.5,80.5C 185.555,72.0239 170.555,63.5239 155.5,55C 152.673,53.3364 149.673,52.1697 146.5,51.5 Z"/></g>
<g><path style="opacity:1" fill="#36639c" d="M 93.5,81.5 C 88.5393,85.3198 83.2059,88.6532 77.5,91.5C 77.238,90.0222 77.5713,88.6888 78.5,87.5C 82.5754,86.4055 86.2421,84.5722 89.5,82C 90.7932,81.51 92.1266,81.3433 93.5,81.5 Z"/></g>
<g><path style="opacity:1" fill="#9bcbed" d="M 265.5,78.5 C 266.477,81.2869 266.81,84.2869 266.5,87.5C 266.179,99.0809 266.512,110.581 267.5,122C 267.024,125.384 265.69,128.384 263.5,131C 260.274,131.885 257.274,133.219 254.5,135C 254.833,135.333 255.167,135.667 255.5,136C 250.479,138.179 245.479,140.346 240.5,142.5C 240.167,142.5 239.833,142.5 239.5,142.5C 243.847,139.543 248.513,136.876 253.5,134.5C 254.167,131.167 256.167,129.833 259.5,130.5C 259.5,129.5 259.5,128.5 259.5,127.5C 261.167,127.5 262.833,127.5 264.5,127.5C 265.42,111.858 265.753,96.1909 265.5,80.5C 265.5,79.8333 265.5,79.1667 265.5,78.5 Z"/></g>
<g><path style="opacity:1" fill="#77c4e4" d="M 208.5,85.5 C 213.195,84.8531 216.862,86.5197 219.5,90.5C 220.494,95.456 220.827,100.456 220.5,105.5C 220.5,105.833 220.5,106.167 220.5,106.5C 219.833,107.167 219.167,107.833 218.5,108.5C 218.666,102.824 218.499,97.1569 218,91.5C 214.82,89.3377 211.654,87.3377 208.5,85.5 Z"/></g>
<g><path style="opacity:1" fill="#7fb9db" d="M 161.5,96.5 C 159.716,96.1075 158.05,95.4408 156.5,94.5C 153.166,92.3369 149.5,91.0036 145.5,90.5C 146.799,88.9014 148.465,88.4014 150.5,89C 154.233,91.5228 157.899,94.0228 161.5,96.5 Z"/></g>
<g><path style="opacity:1" fill="#66b8f9" d="M 264.5,80.5 C 264.666,90.1724 264.5,99.8391 264,109.5C 262.768,106.77 261.935,106.937 261.5,110C 263.337,114.354 263.837,118.854 263,123.5C 262.667,122.833 262.333,122.167 262,121.5C 259.263,122.61 256.429,122.777 253.5,122C 255.377,120.815 257.377,119.815 259.5,119C 254.167,118.333 248.833,118.333 243.5,119C 244.872,119.402 246.205,119.902 247.5,120.5C 249.432,119.48 251.432,119.313 253.5,120C 252.328,120.419 251.328,121.085 250.5,122C 243.167,122.667 235.833,122.667 228.5,122C 227.167,120.667 227.167,119.333 228.5,118C 227.371,115.832 225.871,115.332 224,116.5C 221.593,114.125 222.093,113.125 225.5,113.5C 225.662,111.473 225.495,109.473 225,107.5C 221.774,111.4 220.274,111.067 220.5,106.5C 220.5,106.167 220.5,105.833 220.5,105.5C 224.694,102.906 228.694,100.073 232.5,97C 241.895,93.274 250.561,88.274 258.5,82C 260.345,80.872 262.345,80.372 264.5,80.5 Z"/></g>
<g><path style="opacity:1" fill="#e2f0f9" d="M 93.5,81.5 C 94.1667,81.5 94.8333,81.5 95.5,81.5C 93.6223,84.1492 91.6223,86.8159 89.5,89.5C 85.5936,90.0347 81.9269,91.2014 78.5,93C 78.8333,93.3333 79.1667,93.6667 79.5,94C 78.1955,94.804 77.5288,95.9707 77.5,97.5C 78.1487,110.853 78.8154,124.186 79.5,137.5C 78.8108,139.444 78.3108,141.444 78,143.5C 77.1671,159.51 77.3338,175.51 78.5,191.5C 79.1924,190.975 79.6924,190.308 80,189.5C 80.813,191.436 81.313,193.436 81.5,195.5C 79.2163,195.025 77.2163,194.025 75.5,192.5C 75.5,159.167 75.5,125.833 75.5,92.5C 76.1667,92.1667 76.8333,91.8333 77.5,91.5C 83.2059,88.6532 88.5393,85.3198 93.5,81.5 Z"/></g>
<g><path style="opacity:1" fill="#80b8e1" d="M 145.5,90.5 C 145.167,91.1667 144.833,91.8333 144.5,92.5C 141.497,94.0068 138.83,96.0068 136.5,98.5C 132.158,98.5899 128.825,100.423 126.5,104C 124.846,104.608 123.179,105.108 121.5,105.5C 119.784,107.025 117.784,108.025 115.5,108.5C 120.833,104.833 126.167,101.167 131.5,97.5C 136.167,95.1667 140.833,92.8333 145.5,90.5 Z"/></g>
<g><path style="opacity:1" fill="#70bcfa" d="M 145.5,90.5 C 149.5,91.0036 153.166,92.3369 156.5,94.5C 156.351,95.552 156.517,96.552 157,97.5C 157.333,97.1667 157.667,96.8333 158,96.5C 159.399,97.2266 160.899,97.7266 162.5,98C 161.692,98.3076 161.025,98.8076 160.5,99.5C 161.95,100.85 162.617,102.516 162.5,104.5C 160.076,104.192 157.743,104.526 155.5,105.5C 157.918,106.457 160.084,107.791 162,109.5C 162.419,108.328 163.085,107.328 164,106.5C 165.798,108.837 167.965,109.503 170.5,108.5C 169.478,105.013 167.145,103.68 163.5,104.5C 163.5,103.5 163.5,102.5 163.5,101.5C 172.442,103.805 180.442,107.971 187.5,114C 187,114.5 186.5,115 186,115.5C 183.959,114.577 181.792,114.244 179.5,114.5C 179.5,115.833 179.5,117.167 179.5,118.5C 181.199,118.34 182.866,118.506 184.5,119C 185.517,120.049 185.684,121.216 185,122.5C 182.393,123.27 179.727,123.937 177,124.5C 173.01,121.235 167.843,119.068 161.5,118C 162.973,117.29 163.64,116.124 163.5,114.5C 160.833,114.5 158.167,114.5 155.5,114.5C 155.798,117.336 155.131,117.836 153.5,116C 153.833,115.667 154.167,115.333 154.5,115C 152.167,114.667 149.833,114.333 147.5,114C 148.167,113.667 148.833,113.333 149.5,113C 147.99,112.15 146.49,111.317 145,110.5C 142.313,113.072 139.313,113.739 136,112.5C 135.833,112.167 135.667,111.833 135.5,111.5C 137.686,110.779 139.853,110.113 142,109.5C 142.192,107.423 142.692,105.423 143.5,103.5C 144.736,102.754 146.07,102.421 147.5,102.5C 149.997,93.3478 148.664,93.1812 143.5,102C 139.019,103.158 134.853,104.991 131,107.5C 128.418,106.254 127.585,106.921 128.5,109.5C 127.009,110.244 125.509,110.91 124,111.5C 123.506,109.866 123.34,108.199 123.5,106.5C 125.655,106.628 127.655,106.128 129.5,105C 131.772,103.874 133.105,102.374 133.5,100.5C 137.321,101.787 139.321,100.621 139.5,97C 141.167,96.6667 142.833,96.3333 144.5,96C 143.316,94.8545 143.316,93.6879 144.5,92.5C 144.833,91.8333 145.167,91.1667 145.5,90.5 Z"/></g>
<g><path style="opacity:1" fill="#256bc1" d="M 30.5,76.5 C 30.8333,76.5 31.1667,76.5 31.5,76.5C 32.2312,76.9418 33.2312,77.1085 34.5,77C 34.1667,77.3333 33.8333,77.6667 33.5,78C 47.1673,86.1669 60.834,94.3336 74.5,102.5C 75.1184,115.748 74.4517,128.748 72.5,141.5C 68.1668,142.837 64.1668,145.003 60.5,148C 51.6887,152.661 43.022,157.494 34.5,162.5C 31.7343,134.601 30.401,106.601 30.5,78.5C 30.5,77.8333 30.5,77.1667 30.5,76.5 Z"/></g>
<g><path style="opacity:1" fill="#effdfd" d="M 131.5,97.5 C 126.167,101.167 120.833,104.833 115.5,108.5C 113.243,108.962 111.243,109.962 109.5,111.5C 108.167,132.5 108.167,153.5 109.5,174.5C 112.738,176.275 115.738,178.275 118.5,180.5C 111.773,180.466 107.439,177.132 105.5,170.5C 106.31,150.524 106.81,130.524 107,110.5C 109.43,107.786 112.43,106.119 116,105.5C 116.684,104.216 116.517,103.049 115.5,102C 116.047,101.075 116.713,100.242 117.5,99.5C 120.303,101.02 122.47,100.353 124,97.5C 126.354,97.8916 128.854,97.8916 131.5,97.5 Z"/></g>
<g><path style="opacity:1" fill="#e7fbfd" d="M 206.5,84.5 C 207.167,84.8333 207.833,85.1667 208.5,85.5C 211.654,87.3377 214.82,89.3377 218,91.5C 218.499,97.1569 218.666,102.824 218.5,108.5C 213.023,112.075 207.357,115.408 201.5,118.5C 196.156,116.834 191.489,114.167 187.5,110.5C 190.346,110.59 192.679,111.756 194.5,114C 196.473,114.495 198.473,114.662 200.5,114.5C 200.281,115.675 200.614,116.675 201.5,117.5C 205.65,113.681 210.317,110.681 215.5,108.5C 216.663,103.198 216.829,97.8643 216,92.5C 213.415,90.2419 210.582,88.4086 207.5,87C 206.748,86.3292 206.414,85.4959 206.5,84.5 Z"/></g>
<g><path style="opacity:1" fill="#6e94be" d="M 32.5,72.5 C 31.3995,73.6049 30.7329,74.9382 30.5,76.5C 30.5,77.1667 30.5,77.8333 30.5,78.5C 29.502,107.329 29.1686,136.329 29.5,165.5C 29.5,180.833 29.5,196.167 29.5,211.5C 28.8333,211.5 28.5,211.167 28.5,210.5C 27.8491,166.337 27.5157,122.171 27.5,78C 27.9806,75.022 29.6472,73.1886 32.5,72.5 Z"/></g>
<g><path style="opacity:1" fill="#7ec3fa" d="M 121.5,105.5 C 121.077,110.165 118.744,112.165 114.5,111.5C 113.89,119.651 112.89,127.651 111.5,135.5C 111.507,138.592 112.007,141.592 113,144.5C 113.853,140.531 114.519,136.531 115,132.5C 115.197,130.139 116.364,128.472 118.5,127.5C 118.167,126.833 117.833,126.167 117.5,125.5C 119.5,123.5 121.5,121.5 123.5,119.5C 121.577,118.692 119.577,118.192 117.5,118C 119.891,117.713 122.224,117.213 124.5,116.5C 125.478,116.977 126.311,117.643 127,118.5C 128.419,116.664 129.586,114.664 130.5,112.5C 132.552,113.734 134.219,115.4 135.5,117.5C 136.689,118.429 138.022,118.762 139.5,118.5C 139.5,119.833 139.5,121.167 139.5,122.5C 143.322,122.649 145.655,124.649 146.5,128.5C 147.466,126.604 147.799,124.604 147.5,122.5C 151.733,121.312 155.9,120.645 160,120.5C 163.082,120.748 164.582,122.415 164.5,125.5C 165.5,125.5 166.5,125.5 167.5,125.5C 168.914,131.254 172.247,135.588 177.5,138.5C 178.167,138.333 178.833,138.167 179.5,138C 178.304,137.346 178.304,136.846 179.5,136.5C 182.918,138.152 186.585,138.985 190.5,139C 189.376,139.249 188.376,139.749 187.5,140.5C 192.467,141.329 197.467,141.829 202.5,142C 203.646,142.645 204.646,143.478 205.5,144.5C 206.5,143.167 207.5,141.833 208.5,140.5C 209.262,141.628 209.929,142.795 210.5,144C 213.692,144.197 216.692,145.03 219.5,146.5C 219.833,145.833 220.167,145.167 220.5,144.5C 221.692,146.683 223.525,148.016 226,148.5C 229.767,146.537 233.6,144.87 237.5,143.5C 234.534,145.988 231.201,147.988 227.5,149.5C 225.712,149.215 224.045,149.548 222.5,150.5C 220.772,152.226 218.772,153.559 216.5,154.5C 215.15,153.05 213.484,152.383 211.5,152.5C 211.762,153.978 211.429,155.311 210.5,156.5C 208.125,156.118 205.792,156.618 203.5,158C 204.517,159.049 204.684,160.216 204,161.5C 201.683,164.097 198.85,164.93 195.5,164C 195.833,163.667 196.167,163.333 196.5,163C 190.507,162.881 184.84,161.714 179.5,159.5C 179.5,158.5 179.5,157.5 179.5,156.5C 173.342,156.98 167.342,156.313 161.5,154.5C 160.833,154.667 160.167,154.833 159.5,155C 160.406,156.699 160.739,158.533 160.5,160.5C 169.245,158.846 177.578,160.179 185.5,164.5C 187.503,166.133 188.836,168.133 189.5,170.5C 186.591,168.568 183.424,166.901 180,165.5C 174.575,166.775 169.075,167.442 163.5,167.5C 163.342,171.212 163.342,174.712 163.5,178C 161.744,178.14 160.078,177.64 158.5,176.5C 155.077,179.264 151.41,181.598 147.5,183.5C 146.975,184.192 146.308,184.692 145.5,185C 146.9,186.438 148.567,187.271 150.5,187.5C 150.572,192.778 148.238,194.445 143.5,192.5C 141.03,190.555 138.363,188.722 135.5,187C 126.655,183.629 118.822,178.796 112,172.5C 110.452,152.528 110.118,132.528 111,112.5C 112.667,111.267 114.167,109.933 115.5,108.5C 117.784,108.025 119.784,107.025 121.5,105.5 Z"/></g>
<g><path style="opacity:1" fill="#75bef8" d="M 264.5,80.5 C 264.833,80.5 265.167,80.5 265.5,80.5C 265.753,96.1909 265.42,111.858 264.5,127.5C 262.833,127.5 261.167,127.5 259.5,127.5C 259.5,128.5 259.5,129.5 259.5,130.5C 256.167,129.833 254.167,131.167 253.5,134.5C 248.513,136.876 243.847,139.543 239.5,142.5C 238.833,142.833 238.167,143.167 237.5,143.5C 233.6,144.87 229.767,146.537 226,148.5C 223.525,148.016 221.692,146.683 220.5,144.5C 220.167,145.167 219.833,145.833 219.5,146.5C 216.692,145.03 213.692,144.197 210.5,144C 209.929,142.795 209.262,141.628 208.5,140.5C 207.5,141.833 206.5,143.167 205.5,144.5C 204.646,143.478 203.646,142.645 202.5,142C 197.467,141.829 192.467,141.329 187.5,140.5C 188.376,139.749 189.376,139.249 190.5,139C 186.585,138.985 182.918,138.152 179.5,136.5C 178.304,136.846 178.304,137.346 179.5,138C 178.833,138.167 178.167,138.333 177.5,138.5C 172.247,135.588 168.914,131.254 167.5,125.5C 166.5,125.5 165.5,125.5 164.5,125.5C 164.582,122.415 163.082,120.748 160,120.5C 155.9,120.645 151.733,121.312 147.5,122.5C 147.799,124.604 147.466,126.604 146.5,128.5C 145.655,124.649 143.322,122.649 139.5,122.5C 139.5,121.167 139.5,119.833 139.5,118.5C 138.022,118.762 136.689,118.429 135.5,117.5C 134.219,115.4 132.552,113.734 130.5,112.5C 129.586,114.664 128.419,116.664 127,118.5C 126.311,117.643 125.478,116.977 124.5,116.5C 122.224,117.213 119.891,117.713 117.5,118C 119.577,118.192 121.577,118.692 123.5,119.5C 121.5,121.5 119.5,123.5 117.5,125.5C 117.833,126.167 118.167,126.833 118.5,127.5C 116.364,128.472 115.197,130.139 115,132.5C 114.519,136.531 113.853,140.531 113,144.5C 112.007,141.592 111.507,138.592 111.5,135.5C 112.89,127.651 113.89,119.651 114.5,111.5C 118.744,112.165 121.077,110.165 121.5,105.5C 123.179,105.108 124.846,104.608 126.5,104C 128.825,100.423 132.158,98.5899 136.5,98.5C 138.83,96.0068 141.497,94.0068 144.5,92.5C 143.316,93.6879 143.316,94.8545 144.5,96C 142.833,96.3333 141.167,96.6667 139.5,97C 139.321,100.621 137.321,101.787 133.5,100.5C 133.105,102.374 131.772,103.874 129.5,105C 127.655,106.128 125.655,106.628 123.5,106.5C 123.34,108.199 123.506,109.866 124,111.5C 125.509,110.91 127.009,110.244 128.5,109.5C 127.585,106.921 128.418,106.254 131,107.5C 134.853,104.991 139.019,103.158 143.5,102C 148.664,93.1812 149.997,93.3478 147.5,102.5C 146.07,102.421 144.736,102.754 143.5,103.5C 142.692,105.423 142.192,107.423 142,109.5C 139.853,110.113 137.686,110.779 135.5,111.5C 135.667,111.833 135.833,112.167 136,112.5C 139.313,113.739 142.313,113.072 145,110.5C 146.49,111.317 147.99,112.15 149.5,113C 148.833,113.333 148.167,113.667 147.5,114C 149.833,114.333 152.167,114.667 154.5,115C 154.167,115.333 153.833,115.667 153.5,116C 155.131,117.836 155.798,117.336 155.5,114.5C 158.167,114.5 160.833,114.5 163.5,114.5C 163.64,116.124 162.973,117.29 161.5,118C 167.843,119.068 173.01,121.235 177,124.5C 179.727,123.937 182.393,123.27 185,122.5C 185.684,121.216 185.517,120.049 184.5,119C 182.866,118.506 181.199,118.34 179.5,118.5C 179.5,117.167 179.5,115.833 179.5,114.5C 181.792,114.244 183.959,114.577 186,115.5C 186.5,115 187,114.5 187.5,114C 180.442,107.971 172.442,103.805 163.5,101.5C 163.5,102.5 163.5,103.5 163.5,104.5C 167.145,103.68 169.478,105.013 170.5,108.5C 167.965,109.503 165.798,108.837 164,106.5C 163.085,107.328 162.419,108.328 162,109.5C 160.084,107.791 157.918,106.457 155.5,105.5C 157.743,104.526 160.076,104.192 162.5,104.5C 162.617,102.516 161.95,100.85 160.5,99.5C 161.025,98.8076 161.692,98.3076 162.5,98C 160.899,97.7266 159.399,97.2266 158,96.5C 157.667,96.8333 157.333,97.1667 157,97.5C 156.517,96.552 156.351,95.552 156.5,94.5C 158.05,95.4408 159.716,96.1075 161.5,96.5C 170.167,101.167 178.833,105.833 187.5,110.5C 191.489,114.167 196.156,116.834 201.5,118.5C 207.357,115.408 213.023,112.075 218.5,108.5C 219.167,107.833 219.833,107.167 220.5,106.5C 220.274,111.067 221.774,111.4 225,107.5C 225.495,109.473 225.662,111.473 225.5,113.5C 222.093,113.125 221.593,114.125 224,116.5C 225.871,115.332 227.371,115.832 228.5,118C 227.167,119.333 227.167,120.667 228.5,122C 235.833,122.667 243.167,122.667 250.5,122C 251.328,121.085 252.328,120.419 253.5,120C 251.432,119.313 249.432,119.48 247.5,120.5C 246.205,119.902 244.872,119.402 243.5,119C 248.833,118.333 254.167,118.333 259.5,119C 257.377,119.815 255.377,120.815 253.5,122C 256.429,122.777 259.263,122.61 262,121.5C 262.333,122.167 262.667,122.833 263,123.5C 263.837,118.854 263.337,114.354 261.5,110C 261.935,106.937 262.768,106.77 264,109.5C 264.5,99.8391 264.666,90.1724 264.5,80.5 Z"/></g>
<g><path style="opacity:1" fill="#266ab9" d="M 30.5,78.5 C 30.401,106.601 31.7343,134.601 34.5,162.5C 33.1283,163.512 31.795,164.512 30.5,165.5C 30.1667,165.5 29.8333,165.5 29.5,165.5C 29.1686,136.329 29.502,107.329 30.5,78.5 Z"/></g>
<g><path style="opacity:0.625" fill="#c6e9fe" d="M 239.5,142.5 C 239.833,142.5 240.167,142.5 240.5,142.5C 240.586,143.496 240.252,144.329 239.5,145C 236.977,145.518 234.977,146.852 233.5,149C 231.564,149.813 229.564,150.313 227.5,150.5C 227.5,150.167 227.5,149.833 227.5,149.5C 231.201,147.988 234.534,145.988 237.5,143.5C 238.167,143.167 238.833,142.833 239.5,142.5 Z"/></g>
<g><path style="opacity:1" fill="#1f5598" d="M 75.5,92.5 C 75.5,125.833 75.5,159.167 75.5,192.5C 74.5,192.5 73.5,192.5 72.5,192.5C 72.6328,175.311 72.6328,158.311 72.5,141.5C 74.4517,128.748 75.1184,115.748 74.5,102.5C 74.1872,98.9581 74.5206,95.6248 75.5,92.5 Z"/></g>
<g><path style="opacity:1" fill="#c3ecfc" d="M 264.5,153.5 C 261.167,155.833 257.833,158.167 254.5,160.5C 253.833,160.5 253.167,160.5 252.5,160.5C 252.5,160.167 252.5,159.833 252.5,159.5C 253.804,158.013 254.97,156.346 256,154.5C 256.333,155.167 256.667,155.833 257,156.5C 259.172,155.415 261.172,154.081 263,152.5C 263.383,153.056 263.883,153.389 264.5,153.5 Z"/></g>
<g><path style="opacity:0.188" fill="#cee4f6" d="M 252.5,159.5 C 251.833,158.167 251.833,158.167 252.5,159.5 Z"/></g>
<g><path style="opacity:0.376" fill="#cbe3f2" d="M 247.5,162.5 C 246.833,161.167 246.833,161.167 247.5,162.5 Z"/></g>
<g><path style="opacity:1" fill="#b7e4fb" d="M 252.5,160.5 C 251.101,161.89 249.434,162.89 247.5,163.5C 247.5,163.167 247.5,162.833 247.5,162.5C 248.82,161.058 250.486,160.392 252.5,160.5 Z"/></g>
<g><path style="opacity:1" fill="#83c3f6" d="M 227.5,149.5 C 227.5,149.833 227.5,150.167 227.5,150.5C 224.535,153.072 221.201,155.072 217.5,156.5C 209.839,159.995 202.505,163.995 195.5,168.5C 188.428,173.035 181.095,177.035 173.5,180.5C 168.043,182.158 162.709,184.324 157.5,187C 155.155,189.677 152.488,192.01 149.5,194C 147.011,194.941 145.011,194.441 143.5,192.5C 148.238,194.445 150.572,192.778 150.5,187.5C 148.567,187.271 146.9,186.438 145.5,185C 146.308,184.692 146.975,184.192 147.5,183.5C 151.41,181.598 155.077,179.264 158.5,176.5C 160.078,177.64 161.744,178.14 163.5,178C 163.342,174.712 163.342,171.212 163.5,167.5C 169.075,167.442 174.575,166.775 180,165.5C 183.424,166.901 186.591,168.568 189.5,170.5C 188.836,168.133 187.503,166.133 185.5,164.5C 177.578,160.179 169.245,158.846 160.5,160.5C 160.739,158.533 160.406,156.699 159.5,155C 160.167,154.833 160.833,154.667 161.5,154.5C 167.342,156.313 173.342,156.98 179.5,156.5C 179.5,157.5 179.5,158.5 179.5,159.5C 184.84,161.714 190.507,162.881 196.5,163C 196.167,163.333 195.833,163.667 195.5,164C 198.85,164.93 201.683,164.097 204,161.5C 204.684,160.216 204.517,159.049 203.5,158C 205.792,156.618 208.125,156.118 210.5,156.5C 211.429,155.311 211.762,153.978 211.5,152.5C 213.484,152.383 215.15,153.05 216.5,154.5C 218.772,153.559 220.772,152.226 222.5,150.5C 224.045,149.548 225.712,149.215 227.5,149.5 Z"/></g>
<g><path style="opacity:1" fill="#184fa2" d="M 72.5,141.5 C 72.6328,158.311 72.6328,175.311 72.5,192.5C 62.5657,198.807 52.2324,204.64 41.5,210C 38.6377,211.735 36.3044,213.902 34.5,216.5C 33.5,216.5 32.5,216.5 31.5,216.5C 30.5282,199.547 30.1949,182.547 30.5,165.5C 31.795,164.512 33.1283,163.512 34.5,162.5C 43.022,157.494 51.6887,152.661 60.5,148C 64.1668,145.003 68.1668,142.837 72.5,141.5 Z"/></g>
<g><path style="opacity:0.688" fill="#c7e5f9" d="M 217.5,156.5 C 212.187,161.234 206.854,165.068 201.5,168C 202.373,169.045 203.373,169.878 204.5,170.5C 204.5,171.167 204.167,171.5 203.5,171.5C 201.219,169.572 198.553,168.572 195.5,168.5C 202.505,163.995 209.839,159.995 217.5,156.5 Z"/></g>
<g><path style="opacity:1" fill="#3c9de4" d="M 264.5,215.5 C 251.03,207.93 237.696,200.097 224.5,192C 223.207,191.51 221.873,191.343 220.5,191.5C 220.5,191.167 220.5,190.833 220.5,190.5C 220.336,187.813 220.503,185.146 221,182.5C 222.11,180.963 223.61,180.297 225.5,180.5C 225.5,179.5 225.5,178.5 225.5,177.5C 230.98,177.365 235.314,175.031 238.5,170.5C 239.665,171.491 240.832,172.491 242,173.5C 242.5,173.167 243,172.833 243.5,172.5C 242.355,171.109 242.355,169.776 243.5,168.5C 247.441,166.19 251.108,163.523 254.5,160.5C 257.698,159.213 261.031,158.547 264.5,158.5C 264.5,177.5 264.5,196.5 264.5,215.5 Z"/></g>
<g><path style="opacity:0.063" fill="#d1e4f5" d="M 204.5,170.5 C 204.897,169.475 205.563,169.308 206.5,170C 205.906,170.464 205.239,170.631 204.5,170.5 Z"/></g>
<g><path style="opacity:1" fill="#c1e7fc" d="M 245.5,164.5 C 241.167,167.669 236.5,170.336 231.5,172.5C 231.389,171.883 231.056,171.383 230.5,171C 234.573,169.796 238.239,167.796 241.5,165C 242.793,164.51 244.127,164.343 245.5,164.5 Z"/></g>
<g><path style="opacity:1" fill="#4e9ad2" d="M 252.5,160.5 C 253.167,160.5 253.833,160.5 254.5,160.5C 251.108,163.523 247.441,166.19 243.5,168.5C 242.355,169.776 242.355,171.109 243.5,172.5C 243,172.833 242.5,173.167 242,173.5C 240.832,172.491 239.665,171.491 238.5,170.5C 235.314,175.031 230.98,177.365 225.5,177.5C 225.5,178.5 225.5,179.5 225.5,180.5C 223.61,180.297 222.11,180.963 221,182.5C 220.503,185.146 220.336,187.813 220.5,190.5C 220.167,190.5 219.833,190.5 219.5,190.5C 219.5,186.833 219.5,183.167 219.5,179.5C 221.368,178.737 223.035,177.737 224.5,176.5C 225.167,176.167 225.833,175.833 226.5,175.5C 228.674,175.25 230.341,174.25 231.5,172.5C 236.5,170.336 241.167,167.669 245.5,164.5C 245.842,163.662 246.508,163.328 247.5,163.5C 249.434,162.89 251.101,161.89 252.5,160.5 Z"/></g>
<g><path style="opacity:0.627" fill="#bee8f9" d="M 231.5,172.5 C 230.341,174.25 228.674,175.25 226.5,175.5C 227.3,173.259 228.966,172.259 231.5,172.5 Z"/></g>
<g><path style="opacity:0.063" fill="#d0deed" d="M 210.5,174.5 C 211.833,175.167 211.833,175.167 210.5,174.5 Z"/></g>
<g><path style="opacity:0.125" fill="#d3e5ed" d="M 212.5,177.5 C 212.897,176.475 213.563,176.308 214.5,177C 213.906,177.464 213.239,177.631 212.5,177.5 Z"/></g>
<g><path style="opacity:1" fill="#c7eafe" d="M 224.5,176.5 C 223.035,177.737 221.368,178.737 219.5,179.5C 219.461,177.641 220.294,176.308 222,175.5C 222.951,175.884 223.784,176.217 224.5,176.5 Z"/></g>
<g><path style="opacity:0.314" fill="#cdddf0" d="M 215.5,178.5 C 215.897,177.475 216.563,177.308 217.5,178C 216.906,178.464 216.239,178.631 215.5,178.5 Z"/></g>
<g><path style="opacity:1" fill="#4d97d0" d="M 264.5,153.5 C 265.497,174.327 265.831,195.327 265.5,216.5C 265.027,217.906 264.027,218.573 262.5,218.5C 260.938,218.733 259.605,219.4 258.5,220.5C 258.167,219.833 257.833,219.167 257.5,218.5C 259.824,217.344 262.157,216.344 264.5,215.5C 264.5,196.5 264.5,177.5 264.5,158.5C 261.031,158.547 257.698,159.213 254.5,160.5C 257.833,158.167 261.167,155.833 264.5,153.5 Z"/></g>
<g><path style="opacity:1" fill="#87b9de" d="M 264.5,153.5 C 264.56,152.957 264.893,152.624 265.5,152.5C 266.273,154.813 266.94,157.146 267.5,159.5C 266.845,178.628 266.178,197.628 265.5,216.5C 265.831,195.327 265.497,174.327 264.5,153.5 Z"/></g>
<g><path style="opacity:1" fill="#1c4a8d" d="M 29.5,165.5 C 29.8333,165.5 30.1667,165.5 30.5,165.5C 30.1949,182.547 30.5282,199.547 31.5,216.5C 31.1667,216.5 30.8333,216.5 30.5,216.5C 30.1667,216.5 29.8333,216.5 29.5,216.5C 29.5,214.833 29.5,213.167 29.5,211.5C 29.5,196.167 29.5,180.833 29.5,165.5 Z"/></g>
<g><path style="opacity:1" fill="#8fc2e4" d="M 115.5,108.5 C 114.167,109.933 112.667,111.267 111,112.5C 110.118,132.528 110.452,152.528 112,172.5C 118.822,178.796 126.655,183.629 135.5,187C 138.363,188.722 141.03,190.555 143.5,192.5C 145.011,194.441 147.011,194.941 149.5,194C 152.488,192.01 155.155,189.677 157.5,187C 162.709,184.324 168.043,182.158 173.5,180.5C 165.194,186.325 156.527,191.658 147.5,196.5C 137.972,190.903 128.306,185.57 118.5,180.5C 115.738,178.275 112.738,176.275 109.5,174.5C 108.167,153.5 108.167,132.5 109.5,111.5C 111.243,109.962 113.243,108.962 115.5,108.5 Z"/></g>
<g><path style="opacity:1" fill="#d9eef8" d="M 219.5,179.5 C 219.5,183.167 219.5,186.833 219.5,190.5C 212.975,196.343 205.641,201.01 197.5,204.5C 197.511,202.983 198.177,201.816 199.5,201C 203.663,198.736 207.996,196.736 212.5,195C 213.38,193.644 213.714,192.144 213.5,190.5C 215.124,190.64 216.29,189.973 217,188.5C 217.497,186.19 217.663,183.857 217.5,181.5C 218.167,180.833 218.833,180.167 219.5,179.5 Z"/></g>
<g><path style="opacity:1" fill="#3967a2" d="M 219.5,190.5 C 219.833,190.5 220.167,190.5 220.5,190.5C 220.5,190.833 220.5,191.167 220.5,191.5C 219.353,193.576 218.019,195.576 216.5,197.5C 210.407,199.045 205.074,201.878 200.5,206C 199.207,206.49 197.873,206.657 196.5,206.5C 196.833,205.833 197.167,205.167 197.5,204.5C 205.641,201.01 212.975,196.343 219.5,190.5 Z"/></g>
<g><path style="opacity:1" fill="#2164ba" d="M 220.5,191.5 C 221.873,191.343 223.207,191.51 224.5,192C 237.696,200.097 251.03,207.93 264.5,215.5C 262.157,216.344 259.824,217.344 257.5,218.5C 253.329,218.752 250.329,220.752 248.5,224.5C 245.224,225.787 242.558,227.787 240.5,230.5C 238.94,230.519 237.44,230.852 236,231.5C 233.914,228.005 231.747,227.838 229.5,231C 233.528,233.699 233.195,234.532 228.5,233.5C 222.664,237.186 217.331,241.353 212.5,246C 210.438,246.564 208.605,246.064 207,244.5C 206.5,244.833 206,245.167 205.5,245.5C 208.189,247.662 207.855,249.329 204.5,250.5C 202.729,249.965 202.396,249.131 203.5,248C 201.109,247.713 198.776,247.213 196.5,246.5C 196.167,246.833 195.833,247.167 195.5,247.5C 197.113,248.427 198.779,249.261 200.5,250C 201.337,251.011 201.67,252.178 201.5,253.5C 199.821,253.285 198.821,253.952 198.5,255.5C 191.388,257.113 185.055,260.279 179.5,265C 174.896,265.923 170.563,267.59 166.5,270C 166.833,270.333 167.167,270.667 167.5,271C 166.333,271.5 165.5,272.333 165,273.5C 164.667,273.167 164.333,272.833 164,272.5C 163.331,274.59 162.164,276.257 160.5,277.5C 156.197,279.445 151.863,281.445 147.5,283.5C 145.068,281.744 142.401,280.41 139.5,279.5C 139.586,278.504 139.252,277.671 138.5,277C 134.667,275.167 130.833,273.333 127,271.5C 126.349,269.765 126.515,268.098 127.5,266.5C 127,265.5 126.5,264.5 126,263.5C 125.009,264.939 123.676,265.939 122,266.5C 119.092,266.092 116.592,264.925 114.5,263C 111.883,262.178 109.216,261.678 106.5,261.5C 103.489,260.331 100.822,258.664 98.5,256.5C 97.7101,255.206 96.7101,254.039 95.5,253C 89.5645,250.075 83.5645,247.241 77.5,244.5C 75.663,241.895 73.3297,239.728 70.5,238C 68.6547,236.872 66.6547,236.372 64.5,236.5C 64.7394,234.533 64.4061,232.699 63.5,231C 61.2028,230.982 58.8695,231.149 56.5,231.5C 56.5,230.5 56.5,229.5 56.5,228.5C 53.7938,228.425 51.1272,228.092 48.5,227.5C 47.8333,227.5 47.5,227.167 47.5,226.5C 45.3716,224.569 43.3716,222.402 41.5,220C 38.4079,220.107 36.0745,218.941 34.5,216.5C 36.3044,213.902 38.6377,211.735 41.5,210C 52.2324,204.64 62.5657,198.807 72.5,192.5C 73.5,192.5 74.5,192.5 75.5,192.5C 76.2543,195.091 77.921,196.924 80.5,198C 88.3186,203.216 96.6519,207.383 105.5,210.5C 106.167,210.833 106.833,211.167 107.5,211.5C 108.031,213.624 109.365,215.124 111.5,216C 112.793,216.49 114.127,216.657 115.5,216.5C 115.369,217.376 115.702,218.043 116.5,218.5C 119.771,219.962 122.771,221.629 125.5,223.5C 125.48,225.143 126.147,226.476 127.5,227.5C 130.833,228.833 134.167,230.167 137.5,231.5C 135.711,232.623 135.378,233.956 136.5,235.5C 139.728,233.024 143.061,233.024 146.5,235.5C 149.437,234.53 152.437,233.863 155.5,233.5C 155.5,234.5 155.5,235.5 155.5,236.5C 157.167,236.5 158.833,236.5 160.5,236.5C 160.5,235.167 160.5,233.833 160.5,232.5C 158.801,232.66 157.134,232.494 155.5,232C 158.61,229.185 162.11,228.018 166,228.5C 168.345,225.823 171.012,223.49 174,221.5C 175.4,222.116 176.9,222.449 178.5,222.5C 181.263,221.95 183.93,221.117 186.5,220C 185.167,219.333 185.167,218.667 186.5,218C 185.672,217.085 184.672,216.419 183.5,216C 186.409,213.257 189.743,211.257 193.5,210C 194.71,208.961 195.71,207.794 196.5,206.5C 197.873,206.657 199.207,206.49 200.5,206C 205.074,201.878 210.407,199.045 216.5,197.5C 218.019,195.576 219.353,193.576 220.5,191.5 Z"/></g>
<g><path style="opacity:1" fill="#406ba2" d="M 75.5,192.5 C 77.2163,194.025 79.2163,195.025 81.5,195.5C 89.5,200.5 97.5,205.5 105.5,210.5C 96.6519,207.383 88.3186,203.216 80.5,198C 77.921,196.924 76.2543,195.091 75.5,192.5 Z"/></g>
<g><path style="opacity:1" fill="#7f9fc7" d="M 28.5,210.5 C 28.5,211.167 28.8333,211.5 29.5,211.5C 29.5,213.167 29.5,214.833 29.5,216.5C 28.6942,215.003 28.0276,213.336 27.5,211.5C 27.6236,210.893 27.9569,210.56 28.5,210.5 Z"/></g>
<g><path style="opacity:1" fill="#3d689d" d="M 107.5,211.5 C 110.203,213.181 112.869,214.847 115.5,216.5C 114.127,216.657 112.793,216.49 111.5,216C 109.365,215.124 108.031,213.624 107.5,211.5 Z"/></g>
<g><path style="opacity:0.376" fill="#bfe0fa" d="M 29.5,216.5 C 29.8333,216.5 30.1667,216.5 30.5,216.5C 34.3438,218.922 38.0105,221.589 41.5,224.5C 38.6068,223.82 36.1068,222.487 34,220.5C 33.6667,220.833 33.3333,221.167 33,221.5C 31.7817,219.981 30.2817,218.814 28.5,218C 29.056,217.617 29.3893,217.117 29.5,216.5 Z"/></g>
<g><path style="opacity:1" fill="#346aab" d="M 257.5,218.5 C 257.833,219.167 258.167,219.833 258.5,220.5C 257.833,220.5 257.5,220.833 257.5,221.5C 257.5,222.167 257.167,222.5 256.5,222.5C 251.976,224.043 247.976,226.377 244.5,229.5C 243.167,229.833 241.833,230.167 240.5,230.5C 242.558,227.787 245.224,225.787 248.5,224.5C 250.329,220.752 253.329,218.752 257.5,218.5 Z"/></g>
<g><path style="opacity:1" fill="#c3e7fd" d="M 262.5,218.5 C 262.611,219.117 262.944,219.617 263.5,220C 261.671,220.273 260.171,221.107 259,222.5C 258.617,221.944 258.117,221.611 257.5,221.5C 257.5,220.833 257.833,220.5 258.5,220.5C 259.605,219.4 260.938,218.733 262.5,218.5 Z"/></g>
<g><path style="opacity:1" fill="#326aa8" d="M 30.5,216.5 C 30.8333,216.5 31.1667,216.5 31.5,216.5C 32.5,216.5 33.5,216.5 34.5,216.5C 36.0745,218.941 38.4079,220.107 41.5,220C 43.3716,222.402 45.3716,224.569 47.5,226.5C 45.5,225.833 43.5,225.167 41.5,224.5C 38.0105,221.589 34.3438,218.922 30.5,216.5 Z"/></g>
<g><path style="opacity:0.063" fill="#d0dfeb" d="M 257.5,223.5 C 258.833,224.167 258.833,224.167 257.5,223.5 Z"/></g>
<g><path style="opacity:1" fill="#b8dbf9" d="M 41.5,224.5 C 43.5,225.167 45.5,225.833 47.5,226.5C 47.5,227.167 47.8333,227.5 48.5,227.5C 49.6935,228.272 50.6935,229.272 51.5,230.5C 50.1529,229.829 48.9862,229.829 48,230.5C 46.1275,228.153 43.9608,226.153 41.5,224.5 Z"/></g>
<g><path style="opacity:1" fill="#3167ac" d="M 196.5,206.5 C 195.71,207.794 194.71,208.961 193.5,210C 189.743,211.257 186.409,213.257 183.5,216C 184.672,216.419 185.672,217.085 186.5,218C 185.167,218.667 185.167,219.333 186.5,220C 183.93,221.117 181.263,221.95 178.5,222.5C 176.9,222.449 175.4,222.116 174,221.5C 171.012,223.49 168.345,225.823 166,228.5C 162.11,228.018 158.61,229.185 155.5,232C 157.134,232.494 158.801,232.66 160.5,232.5C 160.5,233.833 160.5,235.167 160.5,236.5C 158.833,236.5 157.167,236.5 155.5,236.5C 155.5,235.5 155.5,234.5 155.5,233.5C 152.437,233.863 149.437,234.53 146.5,235.5C 143.061,233.024 139.728,233.024 136.5,235.5C 135.378,233.956 135.711,232.623 137.5,231.5C 134.167,230.167 130.833,228.833 127.5,227.5C 126.147,226.476 125.48,225.143 125.5,223.5C 122.771,221.629 119.771,219.962 116.5,218.5C 115.702,218.043 115.369,217.376 115.5,216.5C 124.473,221.655 133.473,226.822 142.5,232C 145.03,233.422 147.697,233.755 150.5,233C 165.48,223.512 180.814,214.679 196.5,206.5 Z"/></g>
<g><path style="opacity:0.533" fill="#c0e3fe" d="M 256.5,222.5 C 254.5,224.167 252.5,225.833 250.5,227.5C 249.29,227.932 248.29,228.599 247.5,229.5C 246.5,229.5 245.5,229.5 244.5,229.5C 247.976,226.377 251.976,224.043 256.5,222.5 Z"/></g>
<g><path style="opacity:0.063" fill="#d0e6fa" d="M 250.5,227.5 C 251.833,228.167 251.833,228.167 250.5,227.5 Z"/></g>
<g><path style="opacity:1" fill="#3169b0" d="M 240.5,230.5 C 240.5,230.833 240.5,231.167 240.5,231.5C 240.5,232.167 240.167,232.5 239.5,232.5C 237.326,232.75 235.659,233.75 234.5,235.5C 234.167,235.5 233.833,235.5 233.5,235.5C 230.46,236.68 227.794,238.347 225.5,240.5C 224.833,241.167 224.167,241.833 223.5,242.5C 223.167,242.5 222.833,242.5 222.5,242.5C 217.5,244.664 212.833,247.331 208.5,250.5C 205.167,252.167 201.833,253.833 198.5,255.5C 198.821,253.952 199.821,253.285 201.5,253.5C 201.67,252.178 201.337,251.011 200.5,250C 198.779,249.261 197.113,248.427 195.5,247.5C 195.833,247.167 196.167,246.833 196.5,246.5C 198.776,247.213 201.109,247.713 203.5,248C 202.396,249.131 202.729,249.965 204.5,250.5C 207.855,249.329 208.189,247.662 205.5,245.5C 206,245.167 206.5,244.833 207,244.5C 208.605,246.064 210.438,246.564 212.5,246C 217.331,241.353 222.664,237.186 228.5,233.5C 233.195,234.532 233.528,233.699 229.5,231C 231.747,227.838 233.914,228.005 236,231.5C 237.44,230.852 238.94,230.519 240.5,230.5 Z"/></g>
<g><path style="opacity:0.188" fill="#cee2f2" d="M 247.5,229.5 C 248.833,230.167 248.833,230.167 247.5,229.5 Z"/></g>
<g><path style="opacity:0.753" fill="#b9ddf9" d="M 244.5,229.5 C 244.5,229.833 244.5,230.167 244.5,230.5C 243.292,231.234 241.959,231.567 240.5,231.5C 240.5,231.167 240.5,230.833 240.5,230.5C 241.833,230.167 243.167,229.833 244.5,229.5 Z"/></g>
<g><path style="opacity:0.125" fill="#cfe3f1" d="M 244.5,230.5 C 245.833,231.167 245.833,231.167 244.5,230.5 Z"/></g>
<g><path style="opacity:1" fill="#bfe1fb" d="M 53.5,231.5 C 61.5,235.833 69.5,240.167 77.5,244.5C 78.9842,246.074 80.6508,247.407 82.5,248.5C 81.1266,248.657 79.7932,248.49 78.5,248C 74.3225,245.001 69.9891,242.167 65.5,239.5C 64.914,239.709 64.414,240.043 64,240.5C 62.2807,237.781 59.9474,235.781 57,234.5C 56.6667,234.833 56.3333,235.167 56,235.5C 55.3378,234.016 54.5045,232.683 53.5,231.5 Z"/></g>
<g><path style="opacity:1" fill="#b6def8" d="M 239.5,232.5 C 238.167,233.933 236.667,235.267 235,236.5C 234.601,236.272 234.435,235.938 234.5,235.5C 235.659,233.75 237.326,232.75 239.5,232.5 Z"/></g>
<g><path style="opacity:0.188" fill="#cedde7" d="M 52.5,237.5 C 53.8333,238.167 53.8333,238.167 52.5,237.5 Z"/></g>
<g><path style="opacity:0.125" fill="#cfe1f0" d="M 59.5,237.5 C 60.8333,238.167 60.8333,238.167 59.5,237.5 Z"/></g>
<g><path style="opacity:0.657" fill="#c2e3fc" d="M 233.5,235.5 C 232.203,239.158 229.537,240.824 225.5,240.5C 227.794,238.347 230.46,236.68 233.5,235.5 Z"/></g>
<g><path style="opacity:1" fill="#326bae" d="M 48.5,227.5 C 51.1272,228.092 53.7938,228.425 56.5,228.5C 56.5,229.5 56.5,230.5 56.5,231.5C 58.8695,231.149 61.2028,230.982 63.5,231C 64.4061,232.699 64.7394,234.533 64.5,236.5C 66.6547,236.372 68.6547,236.872 70.5,238C 73.3297,239.728 75.663,241.895 77.5,244.5C 69.5,240.167 61.5,235.833 53.5,231.5C 52.5084,231.672 51.8417,231.338 51.5,230.5C 50.6935,229.272 49.6935,228.272 48.5,227.5 Z"/></g>
<g><path style="opacity:0.376" fill="#cbe5fa" d="M 223.5,242.5 C 224.833,243.167 224.833,243.167 223.5,242.5 Z"/></g>
<g><path style="opacity:1" fill="#c1e3fc" d="M 222.5,242.5 C 219.152,247.123 214.485,249.789 208.5,250.5C 212.833,247.331 217.5,244.664 222.5,242.5 Z"/></g>
<g><path style="opacity:1" fill="#4573ad" d="M 77.5,244.5 C 83.5645,247.241 89.5645,250.075 95.5,253C 96.7101,254.039 97.7101,255.206 98.5,256.5C 95.3777,255.439 92.3777,254.105 89.5,252.5C 88.5084,252.672 87.8417,252.338 87.5,251.5C 86.791,250.596 85.791,250.263 84.5,250.5C 83.8333,249.833 83.1667,249.167 82.5,248.5C 80.6508,247.407 78.9842,246.074 77.5,244.5 Z"/></g>
<g><path style="opacity:0.251" fill="#cbe8fa" d="M 84.5,250.5 C 85.791,250.263 86.791,250.596 87.5,251.5C 86.5041,251.414 85.6708,251.748 85,252.5C 84.5357,251.906 84.369,251.239 84.5,250.5 Z"/></g>
<g><path style="opacity:0.69" fill="#c4e5fc" d="M 208.5,250.5 C 209.41,252.501 208.577,253.835 206,254.5C 205.667,254.167 205.333,253.833 205,253.5C 201.73,256.717 197.897,258.717 193.5,259.5C 195.167,258.167 196.833,256.833 198.5,255.5C 201.833,253.833 205.167,252.167 208.5,250.5 Z"/></g>
<g><path style="opacity:0.188" fill="#bcdcfa" d="M 89.5,252.5 C 92.3777,254.105 95.3777,255.439 98.5,256.5C 100.822,258.664 103.489,260.331 106.5,261.5C 107.694,262.272 108.694,263.272 109.5,264.5C 105.992,263.496 102.826,261.829 100,259.5C 99.6667,259.833 99.3333,260.167 99,260.5C 95.4531,258.164 92.2864,255.497 89.5,252.5 Z"/></g>
<g><path style="opacity:0.627" fill="#bbd9fa" d="M 191.5,260.5 C 190.402,261.397 190.402,262.23 191.5,263C 190.423,263.47 189.423,263.303 188.5,262.5C 188.973,261.094 189.973,260.427 191.5,260.5 Z"/></g>
<g><path style="opacity:0.063" fill="#c9def8" d="M 191.5,260.5 C 191.842,259.662 192.508,259.328 193.5,259.5C 193.633,262.925 192.967,263.258 191.5,260.5 Z"/></g>
<g><path style="opacity:0.251" fill="#c3e4fe" d="M 186.5,263.5 C 186.027,264.906 185.027,265.573 183.5,265.5C 183.973,264.094 184.973,263.427 186.5,263.5 Z"/></g>
<g><path style="opacity:1" fill="#2866b4" d="M 106.5,261.5 C 109.216,261.678 111.883,262.178 114.5,263C 116.592,264.925 119.092,266.092 122,266.5C 123.676,265.939 125.009,264.939 126,263.5C 126.5,264.5 127,265.5 127.5,266.5C 126.515,268.098 126.349,269.765 127,271.5C 130.833,273.333 134.667,275.167 138.5,277C 139.252,277.671 139.586,278.504 139.5,279.5C 138.167,279.167 136.833,278.833 135.5,278.5C 134.833,278.5 134.167,278.5 133.5,278.5C 132.71,277.599 131.71,276.932 130.5,276.5C 130.167,276.5 129.833,276.5 129.5,276.5C 123.173,272 116.506,268 109.5,264.5C 108.694,263.272 107.694,262.272 106.5,261.5 Z"/></g>
<g><path style="opacity:1" fill="#376caf" d="M 198.5,255.5 C 196.833,256.833 195.167,258.167 193.5,259.5C 192.508,259.328 191.842,259.662 191.5,260.5C 189.973,260.427 188.973,261.094 188.5,262.5C 188.158,263.338 187.492,263.672 186.5,263.5C 184.973,263.427 183.973,264.094 183.5,265.5C 183.158,266.338 182.492,266.672 181.5,266.5C 178.669,267.079 176.336,268.412 174.5,270.5C 172.326,270.75 170.659,271.75 169.5,273.5C 166.648,275.091 163.648,276.424 160.5,277.5C 162.164,276.257 163.331,274.59 164,272.5C 164.333,272.833 164.667,273.167 165,273.5C 165.5,272.333 166.333,271.5 167.5,271C 167.167,270.667 166.833,270.333 166.5,270C 170.563,267.59 174.896,265.923 179.5,265C 185.055,260.279 191.388,257.113 198.5,255.5 Z"/></g>
<g><path style="opacity:0.876" fill="#c0e0fc" d="M 109.5,264.5 C 116.506,268 123.173,272 129.5,276.5C 128.24,276.799 127.073,276.799 126,276.5C 122.127,272.806 117.627,269.972 112.5,268C 111.29,266.961 110.29,265.794 109.5,264.5 Z"/></g>
<g><path style="opacity:0.063" fill="#bedffc" d="M 181.5,266.5 C 179.948,269.112 177.614,270.445 174.5,270.5C 176.336,268.412 178.669,267.079 181.5,266.5 Z"/></g>
<g><path style="opacity:0.376" fill="#bcdffb" d="M 174.5,270.5 C 173.514,272.408 171.848,273.408 169.5,273.5C 170.659,271.75 172.326,270.75 174.5,270.5 Z"/></g>
<g><path style="opacity:0.125" fill="#cfe2f5" d="M 169.5,275.5 C 170.833,276.167 170.833,276.167 169.5,275.5 Z"/></g>
<g><path style="opacity:0.063" fill="#d0e5fc" d="M 167.5,276.5 C 168.833,277.167 168.833,277.167 167.5,276.5 Z"/></g>
<g><path style="opacity:0.063" fill="#bbd9f9" d="M 130.5,276.5 C 131.71,276.932 132.71,277.599 133.5,278.5C 131.821,278.715 130.821,278.048 130.5,276.5 Z"/></g>
<g><path style="opacity:1" fill="#b6d8f9" d="M 133.5,278.5 C 134.167,278.5 134.833,278.5 135.5,278.5C 136.306,279.728 137.306,280.728 138.5,281.5C 136.067,281.727 134.401,280.727 133.5,278.5 Z"/></g>
<g><path style="opacity:1" fill="#c3e4fb" d="M 169.5,273.5 C 169.5,274.167 169.5,274.833 169.5,275.5C 168.508,275.328 167.842,275.662 167.5,276.5C 163.631,278.189 160.131,280.522 157,283.5C 156.329,282.748 155.496,282.414 154.5,282.5C 156.5,280.833 158.5,279.167 160.5,277.5C 163.648,276.424 166.648,275.091 169.5,273.5 Z"/></g>
<g><path style="opacity:1" fill="#3a6da6" d="M 160.5,277.5 C 158.5,279.167 156.5,280.833 154.5,282.5C 152.037,283.233 149.703,284.233 147.5,285.5C 145.004,284.749 142.67,283.749 140.5,282.5C 139.508,282.672 138.842,282.338 138.5,281.5C 137.306,280.728 136.306,279.728 135.5,278.5C 136.833,278.833 138.167,279.167 139.5,279.5C 142.401,280.41 145.068,281.744 147.5,283.5C 151.863,281.445 156.197,279.445 160.5,277.5 Z"/></g>
<g><path style="opacity:0.188" fill="#cedfeb" d="M 140.5,285.5 C 141.833,286.167 141.833,286.167 140.5,285.5 Z"/></g>
<g><path style="opacity:0.188" fill="#c1e0f8" d="M 140.5,282.5 C 142.67,283.749 145.004,284.749 147.5,285.5C 149.703,284.233 152.037,283.233 154.5,282.5C 153.016,284.397 151.182,286.064 149,287.5C 145.506,287.613 142.673,285.946 140.5,282.5 Z"/></g>
</svg>
